<svg xmlns="http://www.w3.org/2000/svg" version="1.1" xmlns:xlink="http://www.w3.org/1999/xlink" xmlns:svgjs="http://svgjs.dev/svgjs" width="1000" height="128" viewBox="0 0 1000 128"><g transform="matrix(1,0,0,1,-0.6060606060606233,-0.21441860672498336)"><svg viewBox="0 0 396 51" data-background-color="#000000" preserveAspectRatio="xMidYMid meet" height="128" width="1000" xmlns="http://www.w3.org/2000/svg" xmlns:xlink="http://www.w3.org/1999/xlink"><g id="tight-bounds" transform="matrix(1,0,0,1,0.2400000000000091,0.08543241361698506)"><svg viewBox="0 0 395.52 50.829135172766044" height="50.829135172766044" width="395.52"><g><svg viewBox="0 0 716.0395528084961 92.0197998046875" height="50.829135172766044" width="395.52"><g><svg viewBox="0 0 716.0395528084961 92.0197998046875" height="92.0197998046875" width="716.0395528084961"><g id="textblocktransform"><svg viewBox="0 0 716.0395528084961 92.0197998046875" height="92.0197998046875" width="716.0395528084961" id="textblock"><g><svg viewBox="0 0 716.0395528084961 92.0197998046875" height="92.0197998046875" width="716.0395528084961"><g><svg><g></g><g></g></svg></g><g><svg><g><svg></svg></g><g></g></svg></g><g id="text-0"><svg viewBox="0 0 716.0395528084961 92.0197998046875" height="92.0197998046875" width="716.0395528084961"><g transform="matrix(1,0,0,1,0,27.052380371093747)"><svg width="230.41992187499997" viewBox="0 -34.52 230.41 37.910000000000004" height="37.9150390625" data-palette-color="#46a0a0"><path d="M0 0L0-3.91 5.27-3.91 21.34-30.4 26.61-30.4 42.38-3.91 48.73-3.91 48.73 0 29.93 0 29.93-3.91 35.84-3.91 32.3-10.13 15.19-10.13 11.74-3.91 17.38-3.91 17.38 0 0 0ZM29.37-29.15L30.49-29.15 44.63-5.37 43.51-5.37 29.37-29.15ZM16.89-13.18L30.54-13.18 23.63-25.32 16.89-13.18ZM19.53-14.65L24.07-22.53 24.66-21.46 20.73-14.65 19.53-14.65ZM14.48-5.37L16.14-8.42 32.08-8.42 32.52-7.5 16.87-7.5 15.72-5.37 14.48-5.37ZM30.98 1.71L50.46 1.71 50.46-2.56 51.49-2.56 51.49 2.64 30.98 2.64 30.98 1.71ZM1.07 1.71L19.14 1.71 19.14-2.56 20.12-2.56 20.12 2.64 1.07 2.64 1.07 1.71ZM55.32 0L55.32-3.66 60.69-3.66 60.69-19.41 55.32-19.41 55.32-23.56 65.94-23.56 65.94-19.87Q66.7-20.8 67.76-21.61 68.82-22.41 70.14-23.01 71.46-23.61 73-23.95 74.53-24.29 76.22-24.29L76.22-24.29Q78.76-24.29 80.83-23.57 82.91-22.85 84.37-21.35 85.84-19.85 86.63-17.57 87.42-15.28 87.42-12.16L87.42-12.16 87.42-3.66 92.8-3.66 92.8 0 78.02 0 78.02-3.66 82.18-3.66 82.18-10.08Q82.18-12.06 81.99-13.61 81.81-15.16 81.47-16.04L81.47-16.04Q81.03-17.16 80.36-17.94 79.69-18.73 78.84-19.21 78-19.7 77-19.92 76-20.14 74.88-20.14L74.88-20.14Q73.68-20.14 72.4-19.7 71.12-19.26 69.91-18.47 68.7-17.68 67.66-16.6 66.62-15.53 65.94-14.28L65.94-14.28 65.94-3.66 70.09-3.66 70.09 0 55.32 0ZM89.18-5.13L89.18-11.99Q89.18-14.14 88.85-15.98 88.52-17.82 87.86-19.3 87.2-20.78 86.24-21.85 85.28-22.92 84.01-23.56L84.01-23.56Q85.67-23.14 86.84-22.16 88.01-21.17 88.74-19.65 89.48-18.14 89.82-16.16 90.16-14.18 90.16-11.82L90.16-11.82 90.16-5.13 89.18-5.13ZM67.7-5.13L67.7-13.67Q68.31-14.75 69.15-15.63 69.99-16.5 70.98-17.13 71.97-17.75 73.06-18.09 74.14-18.43 75.22-18.43L75.22-18.43Q76.9-18.43 77.95-17.8 79-17.16 79.49-16.19L79.49-16.19Q78.73-16.75 77.72-17.14 76.71-17.53 75.17-17.53L75.17-17.53Q74.22-17.53 73.24-17.18 72.26-16.82 71.38-16.24 70.51-15.65 69.8-14.89 69.09-14.14 68.67-13.35L68.67-13.35 68.67-5.13 67.7-5.13ZM56.78-16.77L56.78-17.7 59.67-17.7 59.67-16.77 56.78-16.77ZM79.49 1.71L94.55 1.71 94.55-2.29 95.53-2.29 95.53 2.64 79.49 2.64 79.49 1.71ZM56.78 1.71L71.85 1.71 71.85-2.29 72.82-2.29 72.82 2.64 56.78 2.64 56.78 1.71ZM99.26-11.45L99.26-11.45Q99.26-13.72 100.21-15.93 101.17-18.14 103.03-19.89 104.9-21.63 107.66-22.72 110.42-23.8 114.01-23.8L114.01-23.8Q115.16-23.8 116.46-23.63 117.77-23.46 119.07-23.07 120.38-22.68 121.63-22.03 122.87-21.39 123.9-20.46L123.9-20.46 123.9-30.15 118.53-30.15 118.53-34.06 129.15-34.06 129.15-3.66 133.3-3.66 133.3 0 123.9 0 123.9-3.1Q121.99-1.25 119.31-0.26 116.62 0.73 113.47 0.73L113.47 0.73Q110.47 0.73 107.88-0.06 105.29-0.85 103.38-2.39 101.46-3.93 100.36-6.2 99.26-8.47 99.26-11.45ZM130.9-5.13L130.9-32.81 131.88-32.81 131.88-5.13 130.9-5.13ZM119.99-27.51L119.99-28.44 122.87-28.44 122.87-27.51 119.99-27.51ZM104.56-11.65L104.56-11.65Q104.56-9.67 105.21-8.08 105.85-6.49 107.06-5.37 108.27-4.25 109.99-3.64 111.71-3.03 113.89-3.03L113.89-3.03Q115.03-3.03 116.22-3.26 117.4-3.49 118.51-3.97 119.62-4.44 120.61-5.16 121.6-5.88 122.32-6.87 123.04-7.86 123.47-9.13 123.9-10.4 123.9-11.96L123.9-11.96Q123.9-13.7 123.09-15.17 122.29-16.65 120.93-17.72 119.58-18.8 117.77-19.41 115.96-20.02 113.96-20.02L113.96-20.02Q112.01-20.02 110.3-19.41 108.59-18.8 107.31-17.7 106.03-16.6 105.29-15.05 104.56-13.5 104.56-11.65ZM106.27-11.65L106.27-11.65Q106.27-13.04 106.82-14.23 107.37-15.43 108.37-16.33 109.37-17.24 110.8-17.75 112.23-18.26 113.96-18.26L113.96-18.26Q116.45-18.26 118.16-17.53 119.87-16.8 120.48-15.7L120.48-15.7Q119.16-16.55 117.51-16.94 115.86-17.33 113.96-17.33L113.96-17.33Q112.42-17.33 111.19-16.88 109.96-16.43 109.09-15.65 108.22-14.87 107.75-13.81 107.27-12.74 107.27-11.55L107.27-11.55Q107.27-6.93 112.47-4.76L112.47-4.76Q110.98-4.93 109.83-5.54 108.69-6.15 107.89-7.07 107.1-7.98 106.68-9.16 106.27-10.33 106.27-11.65ZM125.36 1.71L135.05 1.71 135.05-2.29 136.03-2.29 136.03 2.64 125.36 2.64 125.36 1.71ZM102.41-1.05L102.41-1.05Q103.41-0.24 104.68 0.4 105.95 1.05 107.39 1.5 108.83 1.95 110.38 2.2 111.93 2.44 113.5 2.44L113.5 2.44Q116.21 2.44 118.56 1.77 120.92 1.1 122.75-0.1L122.75-0.1 122.75 1.03Q120.92 2.12 118.51 2.75 116.11 3.37 113.52 3.37L113.52 3.37Q109.57 3.37 106.76 2.26 103.95 1.15 102.41-1.05ZM141.28 0L141.28-3.66 146.65-3.66 146.65-19.41 141.28-19.41 141.28-23.56 151.9-23.56 151.9-19.48Q152.65-20.46 153.72-21.34 154.78-22.22 156.12-22.88 157.46-23.54 159.05-23.91 160.64-24.29 162.44-24.29L162.44-24.29Q162.98-24.29 163.79-24.26 164.59-24.22 165.32-24.1L165.32-24.1 165.32-19.31Q164.47-19.51 163.64-19.58 162.81-19.65 162.03-19.65L162.03-19.65Q160.08-19.65 158.33-19.03 156.58-18.41 155.22-17.22 153.85-16.04 152.97-14.33 152.09-12.62 151.9-10.42L151.9-10.42 151.9-3.66 160.69-3.66 160.69 0 141.28 0ZM153.61-5.13L153.61-8.23Q153.61-10.52 154.19-12.33 154.78-14.14 155.86-15.38 156.95-16.63 158.51-17.29 160.08-17.94 162.03-17.94L162.03-17.94Q162.44-17.94 163.08-17.88 163.71-17.82 164.41-17.7 165.1-17.58 165.81-17.4 166.52-17.21 167.08-16.97L167.08-16.97 167.08-22.73 168.06-22.73 168.06-15.75Q167.38-16.04 166.58-16.27 165.79-16.5 164.97-16.67 164.15-16.85 163.4-16.93 162.64-17.02 162.03-17.02L162.03-17.02Q160.25-17.02 158.87-16.43 157.49-15.84 156.54-14.75 155.58-13.65 155.08-12.06 154.58-10.47 154.58-8.47L154.58-8.47 154.58-5.13 153.61-5.13ZM142.74-16.77L142.74-17.7 145.62-17.7 145.62-16.77 142.74-16.77ZM142.74 1.71L162.44 1.71 162.44-2.29 163.42-2.29 163.42 2.64 142.74 2.64 142.74 1.71ZM172.57-11.33L172.57-11.33Q172.57-13.92 173.53-16.26 174.48-18.6 176.38-20.39 178.29-22.17 181.12-23.23 183.95-24.29 187.69-24.29L187.69-24.29Q191.2-24.29 193.96-23.35 196.72-22.41 198.65-20.63 200.58-18.85 201.59-16.27 202.6-13.7 202.6-10.4L202.6-10.4 177.92-10.4Q178.14-8.64 179.05-7.28 179.97-5.91 181.39-4.97 182.8-4.03 184.6-3.54 186.39-3.05 188.34-3.05L188.34-3.05Q189.93-3.05 191.58-3.31 193.23-3.56 194.69-4 196.16-4.44 197.3-4.99 198.45-5.54 199.06-6.13L199.06-6.13 199.99-6.13 202.28-3.64Q199.77-1.49 196.17-0.38 192.57 0.73 188.22 0.73L188.22 0.73Q184.44 0.73 181.52-0.2 178.6-1.12 176.61-2.76 174.62-4.39 173.6-6.59 172.57-8.79 172.57-11.33ZM180.26-8.69L204.26-8.69Q204.31-9.06 204.34-9.48 204.36-9.91 204.36-10.4L204.36-10.4Q204.36-12.48 203.93-14.37 203.51-16.26 202.69-17.88 201.87-19.51 200.67-20.85 199.48-22.19 197.96-23.14L197.96-23.14Q199.57-22.51 200.93-21.4 202.28-20.29 203.26-18.7 204.24-17.11 204.79-15.04 205.34-12.96 205.34-10.4L205.34-10.4Q205.34-10.21 205.32-9.91 205.31-9.62 205.29-9.25 205.26-8.89 205.23-8.51 205.19-8.13 205.14-7.76L205.14-7.76 182.07-7.76Q182.53-6.98 183.78-6.16 185.02-5.35 187-4.79L187-4.79Q185.78-4.79 184.72-5.08 183.66-5.37 182.79-5.88 181.92-6.4 181.28-7.12 180.63-7.84 180.26-8.69L180.26-8.69ZM178.07-13.45L196.96-13.45Q196.57-15.14 195.75-16.46 194.94-17.77 193.74-18.66 192.54-19.56 191.01-20.03 189.47-20.51 187.64-20.51L187.64-20.51Q185.66-20.51 184.04-19.98 182.41-19.46 181.19-18.52 179.97-17.58 179.18-16.28 178.38-14.99 178.07-13.45L178.07-13.45ZM181.41-14.5L180.29-14.5Q181.19-16.5 183.13-17.65 185.07-18.8 187.64-18.8L187.64-18.8Q188.69-18.8 189.68-18.63 190.66-18.46 191.51-18.1 192.35-17.75 192.98-17.24 193.62-16.72 193.98-16.06L193.98-16.06Q192.59-16.99 191.01-17.43 189.42-17.87 187.59-17.87L187.59-17.87Q185.46-17.87 183.85-16.99 182.24-16.11 181.41-14.5L181.41-14.5ZM175.53-1.07L175.53-1.07Q177.9 0.61 181.03 1.54 184.17 2.47 188.22 2.47L188.22 2.47Q192.18 2.47 195.63 1.56 199.09 0.66 201.87-1.2L201.87-1.2 202.53-0.49Q199.38 1.64 195.9 2.51 192.42 3.39 188.61 3.39L188.61 3.39Q183.66 3.39 180.4 2.2 177.14 1 175.53-1.07ZM216.08-29.64L216.08-34.52 222.06-34.52 222.06-29.64 216.08-29.64ZM217.54-27L217.54-27.93 223.82-27.93 223.82-33.15 224.79-33.15 224.79-27 217.54-27ZM210.95 0L210.95-3.66 217.54-3.66 216.81-19.41 210.95-19.41 210.95-23.56 222.06-23.56 222.06-3.66 227.67-3.66 227.67 0 210.95 0ZM223.77-5.13L223.77-22.31 224.74-22.31 224.74-5.13 223.77-5.13ZM212.41-16.77L212.41-17.7 215.78-17.7 215.78-16.77 212.41-16.77ZM212.41 1.71L229.43 1.71 229.43-2.29 230.41-2.29 230.41 2.64 212.41 2.64 212.41 1.71Z" opacity="1" transform="matrix(1,0,0,1,0,0)" fill="#46a0a0" class="undefined-lv-0"></path></svg></g><g><svg xmlns="http://www.w3.org/2000/svg" xmlns:xlink="http://www.w3.org/1999/xlink" version="1.1" x="244.90346679687497" y="0" viewBox="12.983 1 75.68599999999999 97.813" enable-background="new 0 0 100 100" xml:space="preserve" height="92.0197998046875" width="71.20332233974601" class="icon-z$-0" data-fill-palette-color="accent" id="z$-0"><g fill="#46a0a0" data-fill-palette-color="accent"><polygon fill-rule="evenodd" clip-rule="evenodd" points="12.983,10.59 30.001,98.813 24.129,39.764 53.15,37.872 53.096,27.989    64.549,1 53.622,18.977  " fill="#46a0a0" data-fill-palette-color="accent"></polygon><polygon fill-rule="evenodd" clip-rule="evenodd" points="59.389,54.548 64.549,1.007 55.809,40.723 36.197,41.768 37.767,62.23    30.001,98.813 42.058,58.914  " fill="#46a0a0" data-fill-palette-color="accent"></polygon><polygon fill-rule="evenodd" clip-rule="evenodd" points="62.8,67.182 63.349,56.729 47.37,60.484 47.338,72.281 30.001,98.813    51.681,71.197  " fill="#46a0a0" data-fill-palette-color="accent"></polygon><polygon fill-rule="evenodd" clip-rule="evenodd" points="65.711,62.394 80.552,57.663 82.061,45.131 66.162,47.226  " fill="#46a0a0" data-fill-palette-color="accent"></polygon><polygon fill-rule="evenodd" clip-rule="evenodd" points="72.07,44.502 83.058,43.085 84.639,32.807 76.56,32.434 64.549,1    72.979,31.967  " fill="#46a0a0" data-fill-palette-color="accent"></polygon><polygon fill-rule="evenodd" clip-rule="evenodd" points="87.413,31.294 88.669,21.788 79.125,19.094 64.549,1 79.032,23.437    78.61,30.437  " fill="#46a0a0" data-fill-palette-color="accent"></polygon></g></svg></g><g transform="matrix(1,0,0,1,330.590334058496,27.052380371093747)"><svg width="385.44921875" viewBox="3.66 -34.52 385.42999999999995 37.910000000000004" height="37.9150390625" data-palette-color="#46a0a0"><path d="M3.66 0L3.66-3.91 10.28-3.91 10.28-26.49 3.66-26.49 3.66-30.4 21.92-30.4Q25.17-30.4 27.64-30.24 30.1-30.08 32.1-29.54L32.1-29.54Q37.35-28.1 39.97-24.58 42.58-21.07 42.58-15.21L42.58-15.21Q42.58-12.52 41.96-10.24 41.33-7.96 40.05-6.14 38.77-4.32 36.83-3.03 34.89-1.73 32.25-1.03L32.25-1.03Q30.27-0.49 27.77-0.24 25.27 0 22.17 0L22.17 0 3.66 0ZM5.22 1.71L21.39 1.71Q23.1 1.71 24.76 1.62 26.42 1.54 27.91 1.39 29.39 1.25 30.65 1.04 31.91 0.83 32.84 0.59L32.84 0.59Q35.47-0.1 37.61-1.5 39.75-2.91 41.24-4.92 42.72-6.93 43.53-9.53 44.34-12.13 44.34-15.21L44.34-15.21Q44.34-17.48 43.92-19.32 43.51-21.17 42.7-22.69 41.89-24.22 40.71-25.49 39.53-26.76 37.99-27.88L37.99-27.88Q39.77-26.98 41.14-25.78 42.5-24.58 43.43-23.02 44.36-21.46 44.85-19.52 45.34-17.58 45.34-15.21L45.34-15.21Q45.34-12.06 44.52-9.34 43.7-6.62 42.14-4.46 40.58-2.29 38.28-0.78 35.99 0.73 33.03 1.49L33.03 1.49Q30.96 2 28.08 2.32 25.2 2.64 21.39 2.64L21.39 2.64 5.22 2.64 5.22 1.71ZM15.77-3.91L23.34-3.91Q26.95-3.91 29.44-4.54 31.93-5.18 33.47-6.49 35.01-7.81 35.69-9.86 36.38-11.91 36.38-14.77L36.38-14.77 36.38-15.67Q36.38-18.46 35.68-20.48 34.99-22.51 33.42-23.85 31.86-25.2 29.33-25.84 26.81-26.49 23.12-26.49L23.12-26.49 15.77-26.49 15.77-3.91ZM17.48-5.37L17.48-24.78 22.66-24.78Q25.1-24.78 26.78-24.6 28.47-24.41 29.65-24.04 30.83-23.66 31.7-23.05 32.57-22.44 33.4-21.58L33.4-21.58Q32.5-22.14 31.51-22.57 30.52-23 29.27-23.28 28.03-23.56 26.42-23.71 24.8-23.85 22.66-23.85L22.66-23.85 18.46-23.85 18.46-5.37 17.48-5.37ZM5.13-23.85L5.13-24.78 9.25-24.78 9.25-23.85 5.13-23.85ZM50.78-11.69L50.78-11.69Q50.78-13.96 51.73-16.21 52.68-18.46 54.55-20.25 56.42-22.05 59.18-23.17 61.94-24.29 65.52-24.29L65.52-24.29Q66.67-24.29 67.98-24.12 69.28-23.95 70.59-23.56 71.9-23.17 73.14-22.52 74.39-21.88 75.41-20.95L75.41-20.95 75.41-23.56 85.91-23.56 85.91-19.41 80.54-19.41 80.54-3.66 85.91-3.66 85.91 0 75.41 0 75.41-3.17Q74.46-2.22 73.25-1.49 72.04-0.76 70.69-0.27 69.33 0.22 67.88 0.48 66.43 0.73 64.99 0.73L64.99 0.73Q61.47 0.73 58.81-0.27 56.15-1.27 54.37-2.97 52.59-4.66 51.68-6.92 50.78-9.18 50.78-11.69ZM82.3-5.13L82.3-17.7 87.67-17.7 87.67-21.7 88.64-21.7 88.64-16.77 83.27-16.77 83.27-5.13 82.3-5.13ZM56.08-11.89L56.08-11.89Q56.08-9.86 56.8-8.23 57.52-6.59 58.76-5.44 60.01-4.3 61.72-3.66 63.43-3.03 65.4-3.03L65.4-3.03Q66.55-3.03 67.73-3.26 68.92-3.49 70.03-3.97 71.14-4.44 72.13-5.16 73.12-5.88 73.84-6.87 74.56-7.86 74.99-9.13 75.41-10.4 75.41-11.96L75.41-11.96Q75.41-13.7 74.61-15.25 73.8-16.8 72.45-17.97 71.09-19.14 69.28-19.82 67.48-20.51 65.48-20.51L65.48-20.51Q63.47-20.51 61.75-19.9 60.03-19.29 58.77-18.16 57.52-17.04 56.8-15.44 56.08-13.84 56.08-11.89ZM57.76-11.77L57.76-11.77Q57.76-13.31 58.33-14.59 58.91-15.87 59.93-16.81 60.96-17.75 62.38-18.27 63.79-18.8 65.48-18.8L65.48-18.8Q66.75-18.8 67.77-18.52 68.8-18.24 69.55-17.83 70.31-17.43 70.8-17 71.29-16.58 71.48-16.26L71.48-16.26Q70.16-16.99 68.77-17.43 67.38-17.87 65.48-17.87L65.48-17.87Q63.94-17.87 62.71-17.37 61.47-16.87 60.59-16.02 59.71-15.16 59.24-14.04 58.76-12.92 58.76-11.67L58.76-11.67Q58.76-10.5 59.03-9.47 59.3-8.45 59.9-7.58 60.5-6.71 61.46-5.99 62.42-5.27 63.79-4.74L63.79-4.74Q62.25-5 61.12-5.65 59.98-6.3 59.24-7.23 58.49-8.15 58.13-9.31 57.76-10.47 57.76-11.77ZM76.88 1.71L87.67 1.71 87.67-2.29 88.64-2.29 88.64 2.64 76.88 2.64 76.88 1.71ZM53.93-1.05L53.93-1.05Q54.93-0.24 56.2 0.4 57.47 1.05 58.91 1.5 60.35 1.95 61.9 2.2 63.45 2.44 65.01 2.44L65.01 2.44Q67.72 2.44 70.08 1.77 72.43 1.1 74.27-0.1L74.27-0.1 74.27 1.03Q72.43 2.12 70.03 2.75 67.62 3.37 65.04 3.37L65.04 3.37Q63.25 3.37 61.55 3.09 59.84 2.81 58.37 2.25 56.91 1.68 55.76 0.85 54.61 0.02 53.93-1.05ZM95.53 0L95.53-3.66 100.9-3.66 100.9-19.41 95.53-19.41 95.53-23.56 106.15-23.56 106.15-19.9Q106.88-20.83 107.91-21.63 108.93-22.44 110.21-23.02 111.49-23.61 113-23.95 114.5-24.29 116.18-24.29L116.18-24.29Q119.62-24.29 122.08-22.95 124.53-21.61 125.87-18.8L125.87-18.8Q126.78-20 127.99-21.01 129.19-22.02 130.63-22.75 132.08-23.49 133.72-23.89 135.37-24.29 137.18-24.29L137.18-24.29Q139.69-24.29 141.72-23.56 143.75-22.83 145.17-21.33 146.6-19.82 147.37-17.54 148.14-15.26 148.14-12.16L148.14-12.16 148.14-3.66 153.51-3.66 153.51 0 138.74 0 138.74-3.66 142.89-3.66 142.89-9.96Q142.89-12.26 142.7-13.96 142.5-15.67 142.04-16.6L142.04-16.6Q141.11-18.53 139.53-19.34 137.96-20.14 135.83-20.14L135.83-20.14Q134.61-20.14 133.34-19.69 132.08-19.24 130.9-18.43 129.73-17.63 128.73-16.53 127.73-15.43 127.05-14.16L127.05-14.16Q127.09-13.67 127.12-13.17 127.14-12.67 127.14-12.16L127.14-12.16 127.14-3.66 131.29-3.66 131.29 0 117.74 0 117.74-3.66 121.89-3.66 121.89-10.08Q121.89-12.06 121.71-13.61 121.53-15.16 121.19-16.04L121.19-16.04Q120.33-18.26 118.7-19.2 117.06-20.14 114.84-20.14L114.84-20.14Q113.62-20.14 112.37-19.7 111.13-19.26 109.97-18.48 108.81-17.7 107.82-16.63 106.83-15.55 106.15-14.31L106.15-14.31 106.15-3.66 110.3-3.66 110.3 0 95.53 0ZM144.72-23.56L144.72-23.56Q146.38-23.14 147.55-22.16 148.73-21.17 149.46-19.65 150.19-18.14 150.53-16.16 150.87-14.18 150.87-11.82L150.87-11.82 150.87-5.13 149.9-5.13 149.9-11.99Q149.9-14.14 149.57-15.98 149.24-17.82 148.58-19.3 147.92-20.78 146.96-21.85 145.99-22.92 144.72-23.56ZM123.73-23.56L123.73-23.56Q124.9-23.41 125.79-22.9 126.68-22.39 127.17-21.78L127.17-21.78 126.46-21.12Q126.31-21.41 126.01-21.78 125.7-22.14 125.32-22.5 124.95-22.85 124.52-23.13 124.09-23.41 123.73-23.56ZM128.9-5.13L128.9-13.67Q129.51-14.75 130.32-15.63 131.12-16.5 132.05-17.13 132.98-17.75 134-18.09 135.03-18.43 136.1-18.43L136.1-18.43Q137.79-18.43 138.87-17.8 139.96-17.16 140.45-16.19L140.45-16.19Q139.69-16.75 138.64-17.13 137.59-17.5 136.05-17.5L136.05-17.5Q135.1-17.5 134.16-17.18 133.22-16.85 132.4-16.28 131.59-15.72 130.93-14.99 130.27-14.26 129.88-13.48L129.88-13.48 129.88-5.13 128.9-5.13ZM107.91-5.13L107.91-13.67Q108.52-14.75 109.32-15.63 110.13-16.5 111.05-17.13 111.98-17.75 113.01-18.09 114.03-18.43 115.11-18.43L115.11-18.43Q116.79-18.43 117.88-17.8 118.96-17.16 119.45-16.19L119.45-16.19Q118.7-16.75 117.65-17.13 116.6-17.5 115.06-17.5L115.06-17.5Q114.11-17.5 113.17-17.18 112.23-16.85 111.41-16.28 110.59-15.72 109.93-14.99 109.27-14.26 108.88-13.48L108.88-13.48 108.88-5.13 107.91-5.13ZM96.99-16.77L96.99-17.7 99.87-17.7 99.87-16.77 96.99-16.77ZM140.2 1.71L155.27 1.71 155.27-2.29 156.25-2.29 156.25 2.64 140.2 2.64 140.2 1.71ZM119.21 1.71L133.05 1.71 133.05-2.29 134.03-2.29 134.03 2.64 119.21 2.64 119.21 1.71ZM96.99 1.71L112.06 1.71 112.06-2.29 113.03-2.29 113.03 2.64 96.99 2.64 96.99 1.71ZM159.98-11.69L159.98-11.69Q159.98-13.96 160.93-16.21 161.88-18.46 163.75-20.25 165.62-22.05 168.38-23.17 171.14-24.29 174.72-24.29L174.72-24.29Q175.87-24.29 177.18-24.12 178.48-23.95 179.79-23.56 181.1-23.17 182.34-22.52 183.59-21.88 184.61-20.95L184.61-20.95 184.61-23.56 195.11-23.56 195.11-19.41 189.74-19.41 189.74-3.66 195.11-3.66 195.11 0 184.61 0 184.61-3.17Q183.66-2.22 182.45-1.49 181.24-0.76 179.89-0.27 178.53 0.22 177.08 0.48 175.63 0.73 174.19 0.73L174.19 0.73Q170.67 0.73 168.01-0.27 165.35-1.27 163.57-2.97 161.78-4.66 160.88-6.92 159.98-9.18 159.98-11.69ZM191.5-5.13L191.5-17.7 196.87-17.7 196.87-21.7 197.84-21.7 197.84-16.77 192.47-16.77 192.47-5.13 191.5-5.13ZM165.28-11.89L165.28-11.89Q165.28-9.86 166-8.23 166.72-6.59 167.96-5.44 169.21-4.3 170.92-3.66 172.62-3.03 174.6-3.03L174.6-3.03Q175.75-3.03 176.93-3.26 178.12-3.49 179.23-3.97 180.34-4.44 181.33-5.16 182.32-5.88 183.04-6.87 183.76-7.86 184.18-9.13 184.61-10.4 184.61-11.96L184.61-11.96Q184.61-13.7 183.81-15.25 183-16.8 181.65-17.97 180.29-19.14 178.48-19.82 176.68-20.51 174.68-20.51L174.68-20.51Q172.67-20.51 170.95-19.9 169.23-19.29 167.97-18.16 166.72-17.04 166-15.44 165.28-13.84 165.28-11.89ZM166.96-11.77L166.96-11.77Q166.96-13.31 167.53-14.59 168.11-15.87 169.13-16.81 170.16-17.75 171.57-18.27 172.99-18.8 174.68-18.8L174.68-18.8Q175.94-18.8 176.97-18.52 178-18.24 178.75-17.83 179.51-17.43 180-17 180.49-16.58 180.68-16.26L180.68-16.26Q179.36-16.99 177.97-17.43 176.58-17.87 174.68-17.87L174.68-17.87Q173.14-17.87 171.9-17.37 170.67-16.87 169.79-16.02 168.91-15.16 168.44-14.04 167.96-12.92 167.96-11.67L167.96-11.67Q167.96-10.5 168.23-9.47 168.5-8.45 169.1-7.58 169.69-6.71 170.66-5.99 171.62-5.27 172.99-4.74L172.99-4.74Q171.45-5 170.32-5.65 169.18-6.3 168.44-7.23 167.69-8.15 167.33-9.31 166.96-10.47 166.96-11.77ZM186.08 1.71L196.87 1.71 196.87-2.29 197.84-2.29 197.84 2.64 186.08 2.64 186.08 1.71ZM163.13-1.05L163.13-1.05Q164.13-0.24 165.4 0.4 166.67 1.05 168.11 1.5 169.55 1.95 171.1 2.2 172.65 2.44 174.21 2.44L174.21 2.44Q176.92 2.44 179.28 1.77 181.63 1.1 183.46-0.1L183.46-0.1 183.46 1.03Q181.63 2.12 179.23 2.75 176.82 3.37 174.24 3.37L174.24 3.37Q172.45 3.37 170.74 3.09 169.04 2.81 167.57 2.25 166.11 1.68 164.96 0.85 163.81 0.02 163.13-1.05ZM204.75 0L204.75-6.71 209.78-6.71Q210.44-5.71 211.66-4.96 212.88-4.2 214.46-3.71 216.03-3.22 217.91-2.98 219.79-2.73 221.77-2.73L221.77-2.73Q223.4-2.73 224.55-2.98 225.7-3.22 226.41-3.66 227.11-4.1 227.43-4.69 227.75-5.27 227.75-5.98L227.75-5.98Q227.75-7.47 225.37-8.53 222.99-9.59 217.84-10.16L217.84-10.16Q214.42-10.52 212.12-11.17 209.83-11.82 208.43-12.74 207.02-13.67 206.42-14.87 205.82-16.06 205.82-17.5L205.82-17.5Q205.82-18.75 206.61-19.97 207.39-21.19 208.99-22.16 210.59-23.12 212.99-23.71 215.4-24.29 218.64-24.29L218.64-24.29Q219.69-24.29 220.79-24.15 221.89-24 222.94-23.72 223.99-23.44 224.94-23.05 225.89-22.66 226.65-22.17L226.65-22.17 226.65-23.54 231.9-23.54 231.9-16.94 226.65-16.94Q226.38-17.7 225.53-18.38 224.67-19.07 223.5-19.58 222.33-20.09 221.01-20.4 219.69-20.7 218.52-20.7L218.52-20.7Q216.98-20.7 215.62-20.48 214.25-20.26 213.25-19.86 212.25-19.46 211.66-18.9 211.07-18.33 211.07-17.65L211.07-17.65Q211.07-17.02 211.53-16.5 211.98-15.99 213.04-15.55 214.1-15.11 215.87-14.73 217.64-14.36 220.28-14.04L220.28-14.04Q223.79-13.6 226.21-12.92 228.63-12.23 230.14-11.24 231.66-10.25 232.33-8.94 233-7.62 233-5.91L233-5.91Q233-4.66 232.24-3.48 231.48-2.29 230.03-1.35 228.58-0.42 226.47 0.16 224.36 0.73 221.62 0.73L221.62 0.73Q219.86 0.73 218.32 0.6 216.79 0.46 215.37 0.15 213.95-0.17 212.64-0.66 211.32-1.15 210-1.86L210-1.86 210 0 204.75 0ZM227.85-14.31L227.85-15.23 233.66-15.23 233.66-22.51 234.63-22.51 234.63-14.31 227.85-14.31ZM212.86-17.65L212.86-17.65Q212.93-17.97 213.44-18.24 213.95-18.51 214.75-18.71 215.54-18.92 216.51-19.04 217.47-19.17 218.45-19.17L218.45-19.17Q219.28-19.17 220.17-19.04 221.06-18.92 221.85-18.7 222.65-18.48 223.29-18.15 223.94-17.82 224.31-17.41L224.31-17.41Q223.74-17.65 222.96-17.81 222.18-17.97 221.36-18.07 220.55-18.16 219.77-18.21 218.98-18.26 218.45-18.26L218.45-18.26Q216.47-18.26 215.02-18.07 213.56-17.87 212.86-17.65ZM206.17-12.82L206.17-12.82Q206.85-11.94 207.8-11.25 208.75-10.57 210.1-10.03 211.44-9.5 213.22-9.12 215-8.74 217.32-8.47L217.32-8.47Q219.45-8.23 221.01-7.95 222.57-7.67 223.62-7.32 224.67-6.98 225.26-6.56 225.84-6.13 226.02-5.59L226.02-5.59Q225.5-5.93 224.84-6.19 224.18-6.45 223.16-6.67 222.13-6.88 220.63-7.1 219.13-7.32 216.91-7.59L216.91-7.59Q212.32-8.13 209.66-9.34 207-10.55 206.17-12.82ZM205.95 1.71L211.76 1.71 211.76 0.68Q212.44 1 213.49 1.31 214.54 1.61 215.85 1.87 217.15 2.12 218.62 2.28 220.08 2.44 221.6 2.44L221.6 2.44Q224.62 2.44 227.07 1.77 229.51 1.1 231.22-0.04 232.92-1.17 233.84-2.67 234.76-4.17 234.76-5.83L234.76-5.83Q234.76-6.49 234.68-7.06 234.61-7.62 234.43-8.13 234.24-8.64 233.94-9.16 233.63-9.67 233.17-10.23L233.17-10.23Q235.73-8.72 235.73-5.83L235.73-5.83Q235.73-3.88 234.73-2.2 233.73-0.51 231.89 0.72 230.04 1.95 227.43 2.66 224.82 3.37 221.57 3.37L221.57 3.37Q220.38 3.37 219.16 3.26 217.93 3.15 216.79 2.95 215.64 2.76 214.61 2.49 213.59 2.22 212.78 1.88L212.78 1.88 212.78 2.69 205.95 2.69 205.95 1.71ZM241.54-11.33L241.54-11.33Q241.54-13.92 242.65-16.26 243.76-18.6 245.78-20.39 247.79-22.17 250.63-23.23 253.48-24.29 256.92-24.29L256.92-24.29Q259.8-24.29 262.13-23.52 264.47-22.75 266.44-21.36L266.44-21.36 266.44-23.54 271.69-23.54 271.69-15.97 266.69-15.97Q266-16.82 265-17.64 264-18.46 262.74-19.09 261.49-19.73 260-20.12 258.51-20.51 256.85-20.51L256.85-20.51Q254.72-20.51 252.89-19.82 251.06-19.14 249.72-17.92 248.38-16.7 247.61-15.04 246.84-13.38 246.84-11.43L246.84-11.43Q246.84-9.4 247.66-7.84 248.47-6.27 249.91-5.21 251.35-4.15 253.33-3.6 255.31-3.05 257.63-3.05L257.63-3.05Q261.39-3.05 264.28-4.25 267.18-5.44 269.45-7.93L269.45-7.93 272.03-4.98Q269.37-2.12 265.86-0.7 262.34 0.73 257.75 0.73L257.75 0.73Q253.89 0.73 250.88-0.13 247.86-1 245.79-2.59 243.71-4.17 242.63-6.4 241.54-8.62 241.54-11.33ZM267.88-13.33L267.88-14.26 273.45-14.26 273.45-22.51 274.43-22.51 274.43-13.33 267.88-13.33ZM248.6-11.43L248.6-11.43Q248.6-13.06 249.23-14.42 249.87-15.77 250.98-16.75 252.09-17.72 253.6-18.26 255.11-18.8 256.87-18.8L256.87-18.8Q257.92-18.8 259-18.6 260.07-18.41 261.02-18.05 261.97-17.7 262.73-17.21 263.49-16.72 263.93-16.14L263.93-16.14Q262.46-16.92 260.79-17.4 259.12-17.87 256.97-17.87L256.97-17.87Q255.26-17.87 253.89-17.35 252.53-16.82 251.56-15.94 250.6-15.06 250.09-13.89 249.57-12.72 249.57-11.43L249.57-11.43Q249.57-10.13 249.98-9.14 250.38-8.15 251.13-7.36 251.89-6.57 252.99-5.97 254.09-5.37 255.48-4.88L255.48-4.88Q253.87-5.03 252.59-5.57 251.31-6.1 250.43-6.95 249.55-7.79 249.07-8.92 248.6-10.06 248.6-11.43ZM245.03-1.12L245.03-1.12Q246.2-0.27 247.64 0.4 249.08 1.07 250.73 1.53 252.38 1.98 254.16 2.22 255.94 2.47 257.78 2.47L257.78 2.47Q259.97 2.47 262.08 2.11 264.2 1.76 266.05 1.1 267.91 0.44 269.45-0.5 270.98-1.44 272.06-2.61L272.06-2.61 272.77-1.98Q270.1 0.73 266.31 2.06 262.51 3.39 257.73 3.39L257.73 3.39Q255.75 3.39 253.8 3.1 251.84 2.81 250.13 2.23 248.43 1.66 247.09 0.82 245.76-0.02 245.03-1.12ZM280.5 0L280.5-3.66 285.87-3.66 285.87-30.15 280.5-30.15 280.5-34.06 291.12-34.06 291.12-19.87Q291.88-20.8 292.94-21.61 294-22.41 295.32-23.01 296.64-23.61 298.18-23.95 299.72-24.29 301.4-24.29L301.4-24.29Q303.94-24.29 306.02-23.57 308.09-22.85 309.56-21.35 311.02-19.85 311.81-17.57 312.61-15.28 312.61-12.16L312.61-12.16 312.61-3.66 317.98-3.66 317.98 0 303.21 0 303.21-3.66 307.36-3.66 307.36-10.08Q307.36-12.06 307.17-13.61 306.99-15.16 306.65-16.04L306.65-16.04Q306.21-17.16 305.54-17.94 304.87-18.73 304.03-19.21 303.18-19.7 302.18-19.92 301.18-20.14 300.06-20.14L300.06-20.14Q298.86-20.14 297.58-19.7 296.3-19.26 295.09-18.47 293.88-17.68 292.84-16.6 291.81-15.53 291.12-14.28L291.12-14.28 291.12-3.66 295.27-3.66 295.27 0 280.5 0ZM292.83-23.24L292.83-32.81 293.81-32.81 293.81-23.88Q293.59-23.78 293.31-23.61 293.03-23.44 292.83-23.24L292.83-23.24ZM281.97-27.51L281.97-28.44 284.85-28.44 284.85-27.51 281.97-27.51ZM314.36-5.13L314.36-11.99Q314.36-14.14 314.04-15.98 313.71-17.82 313.05-19.3 312.39-20.78 311.42-21.85 310.46-22.92 309.19-23.56L309.19-23.56Q310.85-23.14 312.02-22.16 313.19-21.17 313.93-19.65 314.66-18.14 315-16.16 315.34-14.18 315.34-11.82L315.34-11.82 315.34-5.13 314.36-5.13ZM292.88-5.13L292.88-13.67Q293.49-14.75 294.33-15.63 295.18-16.5 296.15-17.13 297.13-17.75 298.19-18.09 299.25-18.43 300.33-18.43L300.33-18.43Q302.01-18.43 303.1-17.8 304.18-17.16 304.67-16.19L304.67-16.19Q303.92-16.75 302.87-17.13 301.82-17.5 300.28-17.5L300.28-17.5Q299.33-17.5 298.35-17.16 297.37-16.82 296.52-16.26 295.66-15.7 294.97-14.97 294.27-14.23 293.86-13.45L293.86-13.45 293.86-5.13 292.88-5.13ZM304.67 1.71L319.74 1.71 319.74-2.29 320.71-2.29 320.71 2.64 304.67 2.64 304.67 1.71ZM281.97 1.71L297.03 1.71 297.03-2.29 298.01-2.29 298.01 2.64 281.97 2.64 281.97 1.71ZM330.11-29.64L330.11-34.52 336.09-34.52 336.09-29.64 330.11-29.64ZM331.57-27L331.57-27.93 337.85-27.93 337.85-33.15 338.83-33.15 338.83-27 331.57-27ZM324.98 0L324.98-3.66 331.57-3.66 330.84-19.41 324.98-19.41 324.98-23.56 336.09-23.56 336.09-3.66 341.71-3.66 341.71 0 324.98 0ZM337.8-5.13L337.8-22.31 338.78-22.31 338.78-5.13 337.8-5.13ZM326.45-16.77L326.45-17.7 329.82-17.7 329.82-16.77 326.45-16.77ZM326.45 1.71L343.46 1.71 343.46-2.29 344.44-2.29 344.44 2.64 326.45 2.64 326.45 1.71ZM348.88 0L348.88-3.66 354.25-3.66 354.25-19.41 348.88-19.41 348.88-23.56 359.5-23.56 359.5-19.87Q360.26-20.8 361.32-21.61 362.38-22.41 363.7-23.01 365.02-23.61 366.56-23.95 368.1-24.29 369.78-24.29L369.78-24.29Q372.32-24.29 374.39-23.57 376.47-22.85 377.93-21.35 379.4-19.85 380.19-17.57 380.99-15.28 380.99-12.16L380.99-12.16 380.99-3.66 386.36-3.66 386.36 0 371.59 0 371.59-3.66 375.74-3.66 375.74-10.08Q375.74-12.06 375.55-13.61 375.37-15.16 375.03-16.04L375.03-16.04Q374.59-17.16 373.92-17.94 373.25-18.73 372.4-19.21 371.56-19.7 370.56-19.92 369.56-20.14 368.44-20.14L368.44-20.14Q367.24-20.14 365.96-19.7 364.68-19.26 363.47-18.47 362.26-17.68 361.22-16.6 360.19-15.53 359.5-14.28L359.5-14.28 359.5-3.66 363.65-3.66 363.65 0 348.88 0ZM382.74-5.13L382.74-11.99Q382.74-14.14 382.41-15.98 382.08-17.82 381.43-19.3 380.77-20.78 379.8-21.85 378.84-22.92 377.57-23.56L377.57-23.56Q379.23-23.14 380.4-22.16 381.57-21.17 382.3-19.65 383.04-18.14 383.38-16.16 383.72-14.18 383.72-11.82L383.72-11.82 383.72-5.13 382.74-5.13ZM361.26-5.13L361.26-13.67Q361.87-14.75 362.71-15.63 363.55-16.5 364.54-17.13 365.53-17.75 366.62-18.09 367.7-18.43 368.78-18.43L368.78-18.43Q370.46-18.43 371.51-17.8 372.56-17.16 373.05-16.19L373.05-16.19Q372.29-16.75 371.28-17.14 370.27-17.53 368.73-17.53L368.73-17.53Q367.78-17.53 366.8-17.18 365.82-16.82 364.95-16.24 364.07-15.65 363.36-14.89 362.65-14.14 362.24-13.35L362.24-13.35 362.24-5.13 361.26-5.13ZM350.35-16.77L350.35-17.7 353.23-17.7 353.23-16.77 350.35-16.77ZM373.05 1.71L388.11 1.71 388.11-2.29 389.09-2.29 389.09 2.64 373.05 2.64 373.05 1.71ZM350.35 1.71L365.41 1.71 365.41-2.29 366.39-2.29 366.39 2.64 350.35 2.64 350.35 1.71Z" opacity="1" transform="matrix(1,0,0,1,0,0)" fill="#46a0a0" class="undefined-lv-1"></path></svg></g></svg></g></svg></g></svg></g></svg></g><g></g></svg></g><defs></defs></svg><rect width="395.52" height="50.829135172766044" fill="none" stroke="none" visibility="hidden"></rect></g></svg></g></svg>